<?xml version="1.0" encoding="UTF-8"?>
<svg id="Layer_1" xmlns="http://www.w3.org/2000/svg" version="1.1" viewBox="0 0 425.4 185.4">
  <!-- Generator: Adobe Illustrator 29.8.1, SVG Export Plug-In . SVG Version: 2.1.1 Build 2)  -->
  <defs>
    <style>
      .st0 {
        fill: #fff;
      }
    </style>
  </defs>
  <g id="Logo-vector">
    <g>
      <path class="st0" d="M425.3,131.7v12.3c0,22.6-15.2,41.2-37.7,41.3h-.1l-79.7-6.7c-59.6-5-119.5-5.1-179.2-.4l-88.4,7.1h0C15.6,185.3.5,168.5.5,144v-12.3h.7c0,.2,0,.4.1.5l2.9,4.9c0,.2.4.4.6.5l1.4.3c.9.2,1.6-.7,1.1-1.5v-.2c-.5-.8.2-1.7,1.1-1.5,206.1,54.1,386.1,6.4,408.8,0,.9-.2,1.6.7,1.2,1.5v.2c-.5.8.2,1.7,1,1.5l1.4-.3c.3,0,.5-.2.7-.5l2.9-4.9c.1-.2.1-.3.1-.5h.8Z"/>
      <path class="st0" d="M368.6,131.6l2.2-.4s-.5-2.9-3.5-2.8c-3.1.1-4.9,1.9-4.9,3.4h-1.2l-.4-1.8-8.8,1.7.3,2-1.6.3-.4-2.2-1.9.2,1.2,7.7-5.8-6.8-2.1.2,1.5,9.6-1.6.2-6.5,1-.5-2.9,5.5-1.1v-1.9l-5.7.8-.4-2.4,5.9-1v-1.9l-8.4,1.1h0c0,.1-1.9.4-1.9.4l-3.5.4-1.1,8.1-3-7.6-3.2.5,1.3,11.3,2-.3-1-8.6,3.4,8.5,2.2-.2.3,2.4c-164.9,22.4-298.7-12.5-317.5-17.7-.5-.1-.8-.6-.8-1s.2-.7.5-.9c.8-.5.6-1.7-.3-1.9l-1.5-.4c-.3,0-.6,0-.8,0l-4.6,2.9c-.3.2-.5.5-.5.9h-1V49.9h0C1.7,33.4,14.8,17.4,31.1,15.2L149.2,2.3c42-3.5,116.1-2.8,157.9,2.9l87,10h0c20.9,4.1,31.1,16.9,31.1,38.2v78.3h-.7c0-.3-.2-.7-.5-.9l-4.6-3c-.2-.2-.5-.2-.8,0l-1.5.3c-.9.2-1.1,1.4-.3,1.9h0c.8.5.6,1.7-.3,1.9-16.1,4.2-32.1,7.8-47.8,10.8l-.5-2.4c1.9-.3,3.4-1,3.8-3.6.4-3.2-3.2-3.6-3.2-3.6h-1.8s-2.4,0-2.7-1.1c-.3-1.1,2.2-1.6,2.2-1.6,0,0,1.3-.3,1.9,1.2h.2ZM368.1,84c0-20.7-16.8-37.5-37.5-37.5s-37.5,16.8-37.5,37.5,16.8,37.5,37.5,37.5,37.5-16.8,37.5-37.5ZM310.8,144.2s6.6.6,6.1-3.4-2.6-3.8-2.6-3.8l-6.4.4,1.2,11.6,2.1-.3-.5-4.5h0ZM301.2,149.8s5.8-.2,5.5-5.8-3.7-5.8-3.7-5.8c0,0-7.6-1.4-7.3,5.6.3,7,5.5,6,5.5,6h0ZM295,150v-2l-5.8.5-.7-9.6-2.2.2.8,11.5,8-.6h0ZM285.1,150.8v-1.9l-6.5.3v-3.1l5.5-.2v-2.1l-5.7.4-.3-2.6,6.2-.2v-1.9l-8.6.4.7,11.5,8.6-.5h0ZM271,151.7l3.3-11.5h-2.1l-2.5,8.6-3.3-8.4h-2.5l4.7,11.2h2.4ZM263.7,152v-2l-6.5.4v-3.3l5.7-.3v-1.9l-6,.4v-2.5l6.1-.3v-2.1l-8.5.5.5,11.5,8.6-.4h0ZM249.1,152.4s4-.6,3.9-5.5-3.7-5.7-3.7-5.7h-6.1l.3,11.5,5.6-.2h0ZM253.1,84c0-20.9-16.8-37.8-37.5-37.8s-37.5,16.9-37.5,37.8,16.8,37.8,37.5,37.8,37.5-16.9,37.5-37.8ZM233.1,152.9s4-.6,3.9-5.5-3.7-5.7-3.7-5.7h-6.1l.3,11.5,5.6-.2h0ZM225.6,153.1v-1.9l-6.6.2v-3.3h5.9v-2h-5.9v-2.4l6.1-.2v-1.7h-8.4l.3,11.4,8.6-.2h0ZM215,149.9l-2.4-.8s0,2.4-2.6,2.6-2.7-2.4-2.7-2.4v-2.9s.2-2.7,2.7-2.6,2.4,1.9,2.4,1.9l2.4-.7s-.3-3.4-4.5-3.3c-2.6,0-4,1.4-4.6,2.4-.4.6-.6,1.3-.6,2v3.3c0,.5,0,.9.2,1.4.4,1.2,1.6,3.1,4.6,3.1,4.3,0,5.1-3.9,5.1-3.9h0ZM200.9,153.3l2.6.2s-1.7-4.5-3.6-5c0,0,3.5-.2,3.1-3.5s-3.3-3.2-3.3-3.2h-5.8l-.6,11.2,2.4.2v-4.8h1.7s.6-.6,3.4,4.8h.1ZM186.4,152.9s5.7.6,5.4-5.9-5.7-6-5.7-6c0,0-5.3-.1-5.3,6.2s5.5,5.6,5.5,5.6h.1ZM179.5,142.8l.2-1.9-7.9-.2-.5,11.2,2.4.3v-5.1l4.9.3.2-1.7-4.9-.3v-2.8l5.5.2h.1ZM169,152l.4-11.4-2.1-.2-.4,7.7-4.2-8h-2.1l-.8,11.4,2.2.2.3-7.5,4.3,7.7h2.4ZM157.4,151.5l.4-11.4-2.2-.2-.5,11.4,2.2.2h.1ZM153.7,141.6l.2-2-8.5-.5-.7,11.3,8.7.5v-1.7l-6.2-.6v-3l6,.2v-1.9l-5.7-.2v-2.7l6.3.5h-.1ZM140.6,150.5h2.8s-1.9-4.4-3.4-5.1c0,0,3.3,0,3.3-3.3s-3.2-3.2-3.2-3.2l-6-.4-.9,11.5h2.4v-4.6h1.8s1.3.2,3.2,5.1h0ZM126.6,149.3l.9-11.6h-2.2l-.8,7.3-3.9-8h-2.3c0-.1-.9,11.4-.9,11.4h2.1c0,.1.6-7.1.6-7.1l3.8,8h2.7ZM136.4,83.4c0-21.5-17-38.9-38-38.9s-38,17.4-38,38.9,17,38.9,38,38.9,38-17.4,38-38.9ZM110.7,148s5.7.3,5.3-6.3c-.4-6.1-5.8-5.5-5.8-5.5,0,0-5.1-.3-5.3,6.1-.2,6.4,5.8,5.7,5.8,5.7ZM102.6,146.9l1.3-11.5-2.2-.3-1.3,11.5,2.2.3ZM97.2,138.2h2.1s-.2-3.9-4.8-3.9-3.6,4.1-3.6,4.1c0,0,1.1,2.1,3.6,2.7,2.5.6,2.2,1.7,2.2,1.7,0,0,0,1.2-1.9,1.2s-2.3-.7-2.3-.7l-.5-1.7h-2.3c0-.1,0,4.7,5.4,4.6,5.4-.1,3.9-5,3.9-5,0,0-1.3-1.7-3.3-2.4s-2-1-2-1c0,0-.7-1.6.9-1.5,1.6,0,1.8,0,2.7,2h0ZM87.8,145.1l1.6-11.5-2.3-.2-1.1,7.6-3.5-8.3-2.2-.4-1.7,11.4,2.2.4,1.1-7.1,3.4,7.9,2.5.3h0ZM78.2,133.9l.4-1.9-8.5-1.5-1.9,11.4,8.6,1.4.2-1.9-6.4-1.1.6-3.1,5.8,1,.4-1.8-5.9-1,.5-2.7,6.2,1.2h0ZM68.4,132.3l.3-1.9-8.9-1.7-.4,1.9,3.5.7-1.9,9.4,2.4.5,1.7-9.4,3.4.5h0Z"/>
      <path class="st0" d="M369.9,136.2s.7,1.9-2.6,2.2c0,0-1.4.3-2.5-1.6l-1.8.6s1.4,3.2,4,3c.5,0,1,0,1.4-.2l.5,2.4c-14.3,2.8-28.3,5.1-42.2,6.9l-.3-2.4,1.2-9.1,1.1,8.8,1.9-.2-1.2-11.4,1.9-.3,1.7,11.2,8.4-1.2v-1.9l1.6-.2.3,1.7,2-.2-1.1-7.5,6.2,6.7,1.8-.4-1.5-9.1,1.6-.3,3.4-.7,1.6,9.4,2.2-.4-1.7-9.5,3.5-.5h1.2c0,1.5,1.3,2.7,1.3,2.7,0,0,1.8.6,3.9.6s2.3.9,2.3.9h0Z"/>
      <path class="st0" d="M355.1,83.4c.2,25.4-18.4,24.9-18.4,24.9h-23.6l.3-49.8h21.9s19.5-.5,19.8,24.9h0ZM334.7,100.2s10,.4,10-16.2-10.5-17.2-10.7-17.2h-10.7v33.4h11.4Z"/>
      <path class="st0" d="M314.7,140.4c.2,1.4-1.1,1.7-1.1,1.7l-2.8.4-.5-3.2,2.9-.2s1.2,0,1.5,1.4h0Z"/>
      <path class="st0" d="M301,140s3.6-.3,3.5,4.4c-.2,4.7-4.5,3.4-4.5,3.4,0,0-2.1-1-2.2-4.3,0-3.2,3.1-3.5,3.1-3.5h.1Z"/>
      <path class="st0" d="M250.7,146.9c.2,3.3-2.2,3.7-2.2,3.7h-2.8l-.2-7.5h3s1.9.5,2.2,3.8Z"/>
      <path class="st0" d="M240.6,108.7h-12.2c-12.1-22.3-16.9-20.9-16.9-20.9l-5.6-.2-.2,20.9h-9.8l.4-49.8h26.1s14.2-.6,14.5,13.5c.4,13.7-13.3,14.6-13.3,14.6,5.7.7,17.1,22,17.1,22h-.1ZM220.8,79.7s6.3-.8,5.8-6.8c-.4-6-5.7-6.1-5.7-6.1h-14.9v12.9h14.8,0Z"/>
      <path class="st0" d="M234.7,147.4c.2,3.3-2.2,3.7-2.2,3.7h-2.8l-.2-7.5h3s1.9.5,2.2,3.8Z"/>
      <path class="st0" d="M199.4,143.8s1.7.1,1.5,1.5c-.2,1.3-1.2,1.4-1.2,1.4h-3.8l.2-2.9h3.3Z"/>
      <path class="st0" d="M189.5,146.7c.2,3.9-3.2,4.2-3.2,4.2,0,0-3.4,0-3.3-4s3.3-3.9,3.3-3.9c0,0,3-.2,3.2,3.6h0Z"/>
      <path class="st0" d="M139.4,140.6s1.5,0,1.5,1.5-1.1,1.6-1.1,1.6l-3.9-.2.2-3.1,3.2.2h.1Z"/>
      <polygon class="st0" points="118.1 61 118.1 69.4 103.4 69.4 103.4 110.9 93.6 110.9 93.4 69.4 78.5 69.4 78.5 61 118.1 61"/>
      <path class="st0" d="M110.5,138.2s3.1-.3,3,3.7c0,4.5-3,4.3-3,4.3,0,0-3.2.7-3.2-3.7s3.2-4.3,3.2-4.3Z"/>
    </g>
  </g>
</svg>